<?xml version="1.0" encoding="utf-8"?>
<svg version="1.1" id="Layer_1" xmlns="http://www.w3.org/2000/svg" xmlns:xlink="http://www.w3.org/1999/xlink" x="0px" y="0px"
	 viewBox="0 0 1920 1080" style="enable-background:new 0 0 1920 1080;" xml:space="preserve">
<g>
	<path d="M1627,189.3c0,67,117.3,83.8,117.3,146.7c0,35.6-41.9,45-92.2,50.3c-60.8,6.3-98.5,30.4-98.5,67
		c0,56.6,56.6,96.4,148.7,96.4h156.1c4.2,0,7.3,2.1,7.3,7.3s-3.1,7.3-7.3,7.3h-196.9c-163.4,0-210.6-67-210.6-136.2
		c0-55.5,32.5-121.5,145.6-121.5c74.4,0,104.8,33.5,120.5,33.5c6.3,0,11.5-4.2,11.5-11.5c0-29.3-75.4-47.1-142.5-59.7
		c-53.4-10.5-76.5-40.9-76.5-75.4s27.2-69.1,85.9-69.1h262.9c4.2,0,7.3,2.1,7.3,7.3c0,5.2-3.1,7.3-7.3,7.3h-157.1
		C1651.1,139,1627,161,1627,189.3z"/>
	<path d="M511.4,129.6v429.5c0,3.1-2.1,5.2-5.2,5.2H397.2c-3.1,0-5.2-2.1-5.2-5.2V345.4H204.5c17.8,11.5,24.1,29.3,24.1,51.3v162.4
		c0,3.1-2.1,5.2-5.2,5.2H105c-3.1,0-5.2-2.1-5.2-5.2V391.5c0-44-48.2-30.4-48.2-70.2c0-32.5,48.2-52.4,48.2-90.1l1-101.6
		c0-3.1,2.1-5.2,5.2-5.2h117.3c3.1,0,5.2,2.1,5.2,5.2v82.8c0,30.4-16.8,53.4-50.3,74.4c-36.7,23-110,22-110,40.9
		c0,7.3,7.3,9.4,18.9,9.4c17.8,0,48.2-6.3,72.3-6.3H392V129.6c0-3.1,2.1-5.2,5.2-5.2h108.9C509.3,124.4,511.4,126.5,511.4,129.6z"/>
	<path d="M689.5,338.1c-74.4-9.4-133-40.9-133-103.7V129.6c0-3.1,2.1-5.2,5.2-5.2h102.7c3.1,0,5.2,2.1,5.2,5.2v104.8
		c0,47.1,27.2,95.3,77.5,95.3h48.2c51.3,0,79.6-48.2,79.6-95.3V129.6c0-3.1,2.1-5.2,5.2-5.2h102.7c3.1,0,5.2,2.1,5.2,5.2v104.8
		c0,70.2-99.5,108.9-177,108.9h-55.5c-27.2,0-50.3,4.2-50.3,17.8c0,13.6,21,15.7,48.2,15.7h48.2c38.8,0,58.7,17.8,58.7,58.7v123.6
		c0,3.1-2.1,5.2-5.2,5.2H736.6c-3.1,0-5.2-2.1-5.2-5.2V431.3c0-48.2-48.2-36.7-48.2-74.4C683.2,348.5,686.3,342.3,689.5,338.1z"/>
	<path d="M1293.9,124.4h-257.7c-3.1,0-5.2,2.1-5.2,5.2v429.5c0,3.1,2.1,5.2,5.2,5.2h107.9c3.1,0,5.2-2.1,5.2-5.2V403
		c12.6-6.3,30.4-11.5,56.6-11.5s55.5,5.2,82.8,5.2c104.8,0,165.5-72.3,165.5-148.7C1454.2,184.1,1401.8,124.4,1293.9,124.4z
		 M1258.3,376.8c-15.7,0-36.7-3.1-50.3-3.1c-25.1,0-44,4.2-58.7,10.5V138h94.3c70.2,0,102.7,60.8,102.7,118.4
		C1346.3,318.2,1314.9,376.8,1258.3,376.8z"/>
</g>
<g>
	<path d="M231.3,636V956H105.6V636H231.3z"/>
	<path d="M653.6,636V956H521.1L393.5,782.3V956H267.9V636h132.1l128,174.1V636H653.6z"/>
	<path d="M815.8,718.8v44.8H1010v78.1H815.8V956H690.1V636h333.2v82.7H815.8z"/>
	<path d="M1245.4,856.3h-69V956h-125.7V636h240.4c92.3,0,139.4,34.7,139.4,107.9c0,49.4-25.1,80.4-64.4,96.9l74,115.2h-132.5
		L1245.4,856.3z M1176.4,774.5h87.8c27,0,40.7-8.7,40.7-29.3c0-19.7-13.7-26.5-40.7-26.5h-87.8V774.5z"/>
	<path d="M1868,956h-85.6l-4.3-12l0,0c-30.5-78.8-99.6-29.8-135.1-68.2c-19.8-21.5-24.3-44.1,16.4-75.9c18-14,22.2-34.4,16.7-50.7
		l-19-51.3l-105.8,257.3h-85.2L1597.4,636h129.9l42.1,114.6c11.5,31.7-3.9,53.4-38.8,56.2c-58.1,4.7-86,24.7-91.7,37.1
		c-4.9,10.8,3.1,15.2,9.7,13.8c9.1-1.9,25.6-27.2,79.4-27.2c72.6,0,112.4,49.5,129.1,95.8L1868,956z"/>
</g>
</svg>
